<svg width="480" height="480" xmlns="http://www.w3.org/2000/svg">

 <g>
  <title>background</title>
  <rect fill="none" id="canvas_background" height="482" width="482" y="-1" x="-1"/>
 </g>
 <g>
  <title>Layer 1</title>
  <path stroke="null" fill="#000000" clip-rule="evenodd" fill-rule="evenodd" id="svg_2" d="m239.654939,1.489273c-132.325095,0 -239.618603,109.634417 -239.618603,244.971067c0,108.24799 68.676403,199.965499 163.882009,232.386572c11.98093,2.239614 16.366806,-5.332413 16.366806,-11.837958c0,-5.865655 -0.213945,-21.223005 -0.320918,-41.699472c-66.643924,14.824109 -80.764306,-32.847666 -80.764306,-32.847666c-10.911204,-28.26179 -26.636175,-35.833817 -26.636175,-35.833817c-21.715436,-15.250702 1.604589,-14.930757 1.604589,-14.930757c24.068833,1.706372 36.691599,25.275639 36.691599,25.275639c21.394518,37.433541 56.053638,26.662066 69.746129,20.369819c2.139452,-15.783943 8.343862,-26.662066 15.190108,-32.741018c-53.165378,-6.185599 -109.112043,-27.195308 -109.112043,-121.045782c0,-26.768715 9.306615,-48.631609 24.603696,-65.695332c-2.46037,-6.185599 -10.697259,-31.141294 2.353397,-64.842146c0,0 20.110847,-6.612192 65.895116,25.062343c19.148094,-5.439062 39.579859,-8.105268 60.011623,-8.211916c20.324792,0.106648 40.86353,2.772855 60.011623,8.211916c45.784269,-31.674535 65.788143,-25.062343 65.788143,-25.062343c13.050656,33.700852 4.813767,58.656546 2.353397,64.842146c15.29708,17.170371 24.603696,39.033265 24.603696,65.695332c0,94.063771 -56.053638,114.753534 -109.43296,120.832485c8.557807,7.572027 16.259834,22.502784 16.259834,45.325513c0,32.741018 -0.320918,59.189788 -0.320918,67.188408c0,6.505544 4.278904,14.184219 16.473779,11.731309c95.419551,-32.314425 163.988982,-124.031933 163.988982,-232.173275c0,-135.33665 -107.293509,-244.971067 -239.618603,-244.971067z" class="st0"/>
 </g>
</svg>