<svg width="32" height="32" xmlns="http://www.w3.org/2000/svg">
 <title/>
 <desc/>

 <g>
  <title>background</title>
  <rect fill="none" id="canvas_background" height="402" width="582" y="-1" x="-1"/>
 </g>
 <g>
  <title>Layer 1</title>
  <path fill="#5b841c" stroke="#151a1d" id="document-text" d="m9.00276,3c-1.10609,0 -2.00276,0.89834 -2.00276,2.00733l0,22.98534c0,1.10862 0.89093,2.00733 1.99742,2.00733l15.00516,0c1.10314,0 1.99742,-0.89821 1.99742,-1.9908l0,-17.5092l0,-0.5l-6,-7l-0.5,0l0,0l-10.49724,0zm9.99724,1l-10.00442,0c-0.54984,0 -0.99558,0.45526 -0.99558,0.99546l0,23.00908c0,0.54978 0.45471,0.99546 0.99996,0.99546l15.00008,0c0.55226,0 0.99996,-0.44495 0.99996,-0.9934l0,-17.0066l-4.00209,0c-1.10341,0 -1.99791,-0.88655 -1.99791,-2.00592l0,-4.99408l0,0zm1,0.5l0,4.49122c0,0.55713 0.45065,1.00878 0.99674,1.00878l3.70321,0l-4.69995,-5.5l0,0zm-10,5.5l0,1l7,0l0,-1l-7,0l0,0zm0,-3l0,1l7,0l0,-1l-7,0l0,0zm0,6l0,1l13,0l0,-1l-13,0l0,0zm0,3l0,1l13,0l0,-1l-13,0l0,0zm0,3l0,1l13,0l0,-1l-13,0l0,0zm0,3l0,1l13,0l0,-1l-13,0l0,0zm0,3l0,1l13,0l0,-1l-13,0l0,0z"/>
 </g>
</svg>