<svg width="128" height="128" xmlns="http://www.w3.org/2000/svg">

 <g>
  <title>background</title>
  <rect fill="none" id="canvas_background" height="402" width="582" y="-1" x="-1"/>
 </g>
 <g>
  <title>Layer 1</title>
  <path stroke="null" fill="#000000" id="svg_3" d="m63.115683,122.760422c-1.698867,0 -3.208971,-0.377526 -4.719076,-1.321341l-14.723516,-8.683099c-2.265156,-1.321341 -1.132578,-1.698867 -0.377526,-1.88763c3.020208,-1.132578 3.586497,-1.321341 6.606706,-3.020208c0.377526,-0.188763 0.755052,-0.188763 1.132578,0.188763l11.325782,6.795469c0.377526,0.188763 0.943815,0.188763 1.321341,0l44.170548,-25.483008c0.377526,-0.188763 0.755052,-0.755052 0.755052,-1.132578l0,-50.966017c0,-0.566289 -0.188763,-0.943815 -0.755052,-1.132578l-43.981785,-25.671771c-0.377526,-0.188763 -0.943815,-0.188763 -1.321341,0l-44.170548,25.294245c-0.377526,0.188763 -0.755052,0.755052 -0.755052,1.132578l0,50.966017c0,0.377526 0.188763,0.943815 0.755052,1.132578l12.080834,6.984232c6.606706,3.208971 10.570729,-0.566289 10.570729,-4.530313l0,-50.022202c0,-0.755052 0.566289,-1.321341 1.321341,-1.321341l5.662891,0c0.755052,0 1.321341,0.566289 1.321341,1.321341l0,50.210965c0,8.871862 -4.719076,13.779701 -13.024649,13.779701c-2.642682,0 -4.530313,0 -10.193203,-2.831445l-11.514545,-6.606706c-2.831445,-1.698867 -4.719076,-4.719076 -4.719076,-8.11681l0,-50.966017c0,-3.208971 1.698867,-6.417943 4.719076,-8.11681l44.170548,-25.483008c2.831445,-1.510104 6.606706,-1.510104 9.249388,0l44.170548,25.483008c2.831445,1.698867 4.719076,4.719076 4.719076,8.11681l0,50.966017c0,3.208971 -1.698867,6.417943 -4.719076,8.11681l-44.359311,25.671771c-1.510104,0.755052 -3.020208,1.132578 -4.719076,1.132578z" class="st1"/>
  <path stroke="null" fill="#000000" id="svg_4" d="m79.766194,90.997178c-20.016899,0 -24.334269,-9.223473 -24.334269,-16.876993c0,-0.784976 0.588732,-1.373709 1.373709,-1.373709l5.887323,0c0.588732,0 1.177465,0.392488 1.373709,1.177465c0.784976,6.083567 3.532394,9.027229 15.699528,9.027229c9.615961,0 13.737087,-2.158685 13.737087,-7.261032c0,-2.943662 -1.177465,-5.102347 -16.288261,-6.6723c-12.559623,-1.177465 -20.409387,-3.924882 -20.409387,-14.129576c0,-9.223473 7.849764,-14.718308 20.998119,-14.718308c14.718308,0 21.97934,5.102347 22.96056,16.092017c0,0.392488 -0.196244,0.784976 -0.392488,0.981221c-0.196244,0.196244 -0.588732,0.392488 -0.981221,0.392488l-5.887323,0c-0.588732,0 -1.177465,-0.392488 -1.373709,-0.981221c-1.373709,-6.279811 -4.906103,-8.438497 -14.32582,-8.438497c-10.597182,0 -11.774646,3.728638 -11.774646,6.476055c0,3.33615 1.373709,4.31737 15.699528,6.279811c14.129576,1.766197 20.801875,4.513614 20.801875,14.32582c0,10.008449 -8.242252,15.699528 -22.764316,15.699528z" class="st1"/>
 </g>
</svg>