<svg width="799.9999999999999" height="850" xmlns="http://www.w3.org/2000/svg">

 <g>
  <title>background</title>
  <rect fill="none" id="canvas_background" height="852" width="802" y="-1" x="-1"/>
 </g>
 <g>
  <title>Layer 1</title>
  <path stroke="null" id="svg_1" d="m399.999999,620.896109c-140.984684,0 -255.331148,-38.150064 -255.331148,-85.110383c0,-25.682723 0,-53.775799 0,-85.110383c0,-7.397289 3.698312,-14.42089 9.017711,-21.277596c28.467428,36.653983 127.458118,63.832787 246.313437,63.832787s217.846009,-27.178804 246.313437,-63.832787c5.319399,6.856705 9.017711,13.880307 9.017711,21.277596c0,24.643445 0,50.783637 0,85.110383c0,46.960319 -114.367077,85.110383 -255.331148,85.110383zm0,-170.220766c-140.984684,0 -255.331148,-38.150064 -255.331148,-85.110383c0,-25.703336 0,-53.755186 0,-85.110383c0,-4.508856 1.703538,-8.89337 3.989549,-13.235994l0,0c1.288624,-2.722202 2.992162,-5.402515 5.028162,-8.041601c28.467428,36.633371 127.458118,63.832787 246.313437,63.832787s217.846009,-27.199417 246.313437,-63.832787c2.036,2.639087 3.740202,5.319399 5.028162,8.041601l0,0c2.286012,4.342624 3.989549,8.727139 3.989549,13.235994c0,24.643445 0,50.763024 0,85.110383c0,46.960319 -114.367077,85.110383 -255.331148,85.110383zm0,-170.220766c-140.984684,0 -255.331148,-38.129451 -255.331148,-85.110383c0,-13.444116 0,-27.656885 0,-42.555191c0,-13.527231 0,-27.573769 0,-42.555191c0,-46.980931 114.346464,-85.110383 255.331148,-85.110383c140.964072,0 255.331148,38.129451 255.331148,85.110383c0,13.277885 0,27.365648 0,42.555191c0,13.028538 0,26.763226 0,42.555191c0,46.980931 -114.367077,85.110383 -255.331148,85.110383zm0,-212.775957c-94.003753,0 -170.220766,19.012862 -170.220766,42.555191s76.217013,42.555191 170.220766,42.555191s170.220766,-19.012862 170.220766,-42.555191s-76.217013,-42.555191 -170.220766,-42.555191z"/>
  <text stroke="null" transform="matrix(10.813085617507797,0,0,10.813085617507797,-1334.0466126625886,-7792.488198270737) " font-weight="bold" xml:space="preserve" text-anchor="start" font-family="Helvetica, Arial, sans-serif" font-size="24" id="svg_2" y="797.278348" x="135.701742" fill-opacity="null" stroke-opacity="null" stroke-width="0" fill="#000000">SQL</text>
 </g>
</svg>